<svg width="18" height="18" viewBox="0 0 18 18" fill="none" xmlns="http://www.w3.org/2000/svg">
<path fill-rule="evenodd" clip-rule="evenodd" d="M2.8917 5.22C2.9052 5.9031 2.5335 6.8265 2.0502 7.3089C1.60173 7.75779 1.34982 8.36637 1.34982 9.0009C1.34982 9.63543 1.60173 10.244 2.0502 10.6929C2.5272 11.1681 2.8782 11.9925 2.8917 12.6657C2.9043 13.2615 3.1374 13.8537 3.5919 14.3073C4.01122 14.7275 4.57217 14.9762 5.1651 15.0048C5.877 15.0408 6.8094 15.4548 7.3134 15.9588C7.76226 16.407 8.37064 16.6587 9.00495 16.6587C9.63926 16.6587 10.2476 16.407 10.6965 15.9588C11.2005 15.4548 12.1329 15.0408 12.8448 15.0048C13.4377 14.9762 13.9987 14.7275 14.418 14.3073C14.8551 13.8707 15.1058 13.2816 15.1173 12.6639C15.1308 11.9925 15.4773 11.1735 15.9534 10.6983C16.4036 10.2495 16.657 9.64035 16.6581 9.00471C16.6591 8.36908 16.4075 7.75908 15.9588 7.3089C15.4764 6.8274 15.1038 5.9031 15.1182 5.2209C15.125 4.8988 15.0664 4.57867 14.9461 4.27982C14.8257 3.98098 14.6461 3.70961 14.418 3.4821C14.1816 3.24507 13.8979 3.06047 13.5855 2.9403C13.273 2.82012 12.9388 2.76707 12.6045 2.7846C11.9619 2.817 11.151 2.5056 10.6965 2.0502C10.2476 1.60173 9.63903 1.34982 9.0045 1.34982C8.36997 1.34982 7.76139 1.60173 7.3125 2.0502C6.8589 2.5047 6.0471 2.817 5.4045 2.7846C5.07034 2.7672 4.73627 2.82032 4.42398 2.94048C4.1117 3.06065 3.82819 3.24519 3.5919 3.4821C3.36391 3.7095 3.18433 3.98072 3.06399 4.27941C2.94365 4.57809 2.88504 4.89805 2.8917 5.22ZM11.7369 5.9634C11.8403 6.02076 11.9313 6.09792 12.0049 6.19049C12.0784 6.28305 12.133 6.3892 12.1655 6.50286C12.198 6.61653 12.2078 6.73549 12.1944 6.85294C12.1809 6.9704 12.1444 7.08405 12.087 7.1874L9.5958 11.6712C9.53127 11.7933 9.4395 11.8989 9.3276 11.9799C9.16498 12.0976 8.96771 12.1575 8.76713 12.1501C8.56655 12.1428 8.37418 12.0686 8.2206 11.9394L5.7375 9.9531C5.64519 9.87923 5.56834 9.7879 5.51133 9.68433C5.45431 9.58076 5.41826 9.46698 5.40522 9.34947C5.39219 9.23197 5.40242 9.11305 5.43534 8.9995C5.46826 8.88595 5.52323 8.78 5.5971 8.6877C5.67096 8.59539 5.76229 8.51854 5.86586 8.46153C5.96943 8.40451 6.08322 8.36846 6.20072 8.35542C6.31822 8.34239 6.43714 8.35262 6.55069 8.38554C6.66424 8.41846 6.77019 8.47343 6.8625 8.5473L8.5302 9.882L10.5129 6.3126C10.5703 6.2093 10.6476 6.11832 10.7402 6.04486C10.8328 5.97141 10.9389 5.91691 11.0526 5.88448C11.1662 5.85206 11.2852 5.84234 11.4026 5.85588C11.52 5.86942 11.6336 5.90595 11.7369 5.9634Z" fill="#F2F2F2"/>
</svg>
